<svg width="211" height="176" viewBox="0 0 211 176" fill="none" xmlns="http://www.w3.org/2000/svg">
<path d="M185.461 77.6792C200.289 88.7403 210.984 104.829 210.984 123.935C210.984 152.844 194.212 175.972 155.564 175.972H0V0H148.272C186.92 0 198.83 18.1 198.83 44.7472C198.83 56.0597 193.726 67.6236 185.461 77.6792ZM63.1979 42.7361V61.8417H121.534C127.854 61.8417 135.632 61.8417 135.632 52.2889C135.632 42.7361 127.854 42.7361 121.534 42.7361H63.1979ZM133.688 128.208C140.008 128.208 147.786 128.208 147.786 118.907C147.786 109.606 140.008 109.606 133.688 109.606H63.1979V128.208H133.688Z" fill="black"/>
</svg>
