<svg width="231" height="181" viewBox="0 0 231 181" fill="none" xmlns="http://www.w3.org/2000/svg">
<path d="M0 116.393H66.9084C66.9084 124.94 75.1433 130.722 117.604 130.722C157.235 130.722 163.154 128.208 163.154 121.672C163.154 114.131 157.235 113.125 115.031 111.868C33.7115 109.354 2.5734 96.2819 2.5734 55.3056C2.5734 16.5917 41.4317 0 112.458 0C182.711 0 222.342 16.5917 222.342 61.5903H155.433C155.433 52.2889 139.993 50.2778 107.311 50.2778C75.9153 50.2778 69.4818 51.7861 69.4818 58.5736C69.4818 65.3611 75.9153 65.1097 115.031 66.6181C186.057 69.3833 230.062 74.1597 230.062 120.164C230.062 168.682 188.888 181 115.031 181C41.1744 181 0 168.682 0 116.393Z" fill="black"/>
</svg>
