<svg
                    width="79"
                    height="78"
                    viewBox="0 0 79 78"
                    fill="none"
                    xmlns="http://www.w3.org/2000/svg"
                  >
                    <g clip-path="url(#clip0_123_63)">
                      <path
                        d="M69.9298 0.95166H8.86392C4.67505 0.95166 1.2793 4.34741 1.2793 8.53629V69.0731C1.2793 73.262 4.67505 76.6577 8.86392 76.6577H69.9298C74.1186 76.6577 77.5144 73.262 77.5144 69.0731V8.53629C77.5144 4.34741 74.1186 0.95166 69.9298 0.95166Z"
                        fill="#00A652"
                      />
                      <path
                        d="M69.9298 0.95166H8.86392C4.67505 0.95166 1.2793 4.34741 1.2793 8.53629V69.0731C1.2793 73.262 4.67505 76.6577 8.86392 76.6577H69.9298C74.1186 76.6577 77.5144 73.262 77.5144 69.0731V8.53629C77.5144 4.34741 74.1186 0.95166 69.9298 0.95166Z"
                        stroke="#141414"
                        stroke-width="0.934643"
                      />
                    </g>
                    <path
                      d="M39.0013 63C37.4209 63 35.8443 62.8455 34.2943 62.5387C33.7615 62.4334 33.2733 62.1698 32.8945 61.7827C32.5156 61.3956 32.264 60.9032 32.1728 60.3707L31.4406 56.0882C30.189 55.5423 29.0017 54.8609 27.9003 54.0563L23.8047 55.5656C23.2953 55.7537 22.7405 55.7836 22.2136 55.6512C21.6868 55.5188 21.2128 55.2304 20.8545 54.8243C18.7629 52.4559 17.1624 49.7001 16.1448 46.7152C15.9701 46.2033 15.9561 45.6506 16.1046 45.1306C16.2531 44.6106 16.5571 44.1477 16.9762 43.8033L20.3395 41.0301C20.1903 39.6795 20.1903 38.3168 20.3395 36.9662L16.9735 34.201C16.5544 33.8566 16.2504 33.3937 16.102 32.8737C15.9535 32.3537 15.9675 31.801 16.1421 31.2891C17.1594 28.3032 18.76 25.5466 20.8518 23.1774C21.2101 22.7712 21.6841 22.4828 22.2109 22.3504C22.7378 22.2181 23.2927 22.2479 23.8021 22.4361L27.8976 23.9453C28.999 23.1407 30.1863 22.4593 31.4379 21.9134L32.1728 17.6309C32.264 17.0984 32.5156 16.6061 32.8945 16.2189C33.2733 15.8318 33.7615 15.5682 34.2943 15.463C37.4016 14.8457 40.6011 14.8457 43.7084 15.463C44.2412 15.5682 44.7294 15.8318 45.1082 16.2189C45.487 16.6061 45.7387 17.0984 45.8299 17.6309L46.5621 21.9134C47.8137 22.4593 49.001 23.1407 50.1024 23.9453L54.1979 22.4361C54.7073 22.2479 55.2622 22.2181 55.7891 22.3504C56.3159 22.4828 56.7899 22.7712 57.1482 23.1774C59.2397 25.5458 60.8403 28.3015 61.8579 31.2864C62.0325 31.7984 62.0465 32.351 61.8981 32.871C61.7496 33.3911 61.4456 33.8539 61.0265 34.1983L57.6632 36.9715C57.8124 38.3221 57.8124 39.6848 57.6632 41.0354L61.0265 43.8086C61.4456 44.153 61.7496 44.6159 61.8981 45.1359C62.0465 45.656 62.0325 46.2086 61.8579 46.7205C60.8403 49.7055 59.2397 52.4612 57.1482 54.8296C56.7899 55.2358 56.3159 55.5241 55.7891 55.6565C55.2622 55.7889 54.7073 55.759 54.1979 55.5709L50.1024 54.0616C49.001 54.8662 47.8137 55.5477 46.5621 56.0936L45.8299 60.3761C45.7387 60.9085 45.487 61.4009 45.1082 61.788C44.7294 62.1752 44.2412 62.4388 43.7084 62.544C42.1582 62.8491 40.5816 63.0018 39.0013 63ZM37.1239 57.5735C38.3661 57.6986 39.6178 57.6986 40.86 57.5735L41.5225 53.7043C41.6036 53.2307 41.8119 52.7876 42.1253 52.422C42.4388 52.0563 42.8458 51.7817 43.3034 51.627C44.9778 51.0683 46.524 50.1846 47.8522 49.0271C48.2159 48.7096 48.6592 48.4959 49.1352 48.4086C49.6111 48.3212 50.102 48.3636 50.5557 48.5312L54.2596 49.8964C54.9914 48.8892 55.6203 47.8119 56.1371 46.6805L53.0983 44.1766C52.7263 43.8702 52.4445 43.4696 52.2826 43.0172C52.1207 42.5647 52.0846 42.0772 52.1783 41.6061C52.5214 39.8869 52.5214 38.1174 52.1783 36.3982C52.0846 35.9271 52.1207 35.4396 52.2826 34.9871C52.4445 34.5346 52.7263 34.1341 53.0983 33.8277L56.1129 31.3211C55.5961 30.1898 54.9672 29.1125 54.2355 28.1052L50.5342 29.4705C50.0834 29.6339 49.5968 29.6741 49.125 29.5868C48.6533 29.4996 48.2137 29.2881 47.8522 28.9745C46.5305 27.8185 44.9919 26.934 43.3248 26.3719C42.8673 26.2173 42.4603 25.9426 42.1468 25.577C41.8333 25.2114 41.625 24.7683 41.5439 24.2947L40.8788 20.4281C39.6366 20.3031 38.3849 20.3031 37.1427 20.4281L36.4722 24.2947C36.3911 24.7683 36.1828 25.2114 35.8693 25.577C35.5558 25.9426 35.1488 26.2173 34.6913 26.3719C33.0195 26.9324 31.4761 27.817 30.1505 28.9745C29.789 29.2881 29.3494 29.4996 28.8777 29.5868C28.4059 29.6741 27.9193 29.6339 27.4685 29.4705L23.7538 28.1052C23.0221 29.1125 22.3931 30.1898 21.8763 31.3211L24.9151 33.825C25.2871 34.1314 25.5689 34.532 25.7308 34.9844C25.8928 35.4369 25.9288 35.9244 25.8351 36.3956C25.492 38.1148 25.492 39.8842 25.8351 41.6034C25.9288 42.0745 25.8928 42.5621 25.7308 43.0145C25.5689 43.467 25.2871 43.8676 24.9151 44.174L21.8898 46.6805C22.4065 47.8119 23.0355 48.8892 23.7672 49.8964L27.4685 48.5312C27.9193 48.3677 28.4059 48.3275 28.8777 48.4148C29.3494 48.502 29.789 48.7135 30.1505 49.0271C31.4721 50.1831 33.0108 51.0676 34.6778 51.6297C35.1354 51.7843 35.5424 52.059 35.8559 52.4246C36.1694 52.7903 36.3777 53.2333 36.4587 53.707L37.1239 57.5735ZM39.0013 47.6405C36.6966 47.6405 34.4863 46.7303 32.8567 45.11C31.227 43.4897 30.3114 41.2922 30.3114 39.0008C30.3114 36.7094 31.227 34.5119 32.8567 32.8916C34.4863 31.2714 36.6966 30.3611 39.0013 30.3611C41.306 30.3611 43.5164 31.2714 45.146 32.8916C46.7757 34.5119 47.6912 36.7094 47.6912 39.0008C47.6912 41.2922 46.7757 43.4897 45.146 45.11C43.5164 46.7303 41.306 47.6405 39.0013 47.6405ZM39.0013 35.6943C38.3436 35.6943 37.7006 35.8882 37.1536 36.2515C36.6067 36.6148 36.1805 37.1313 35.9287 37.7355C35.677 38.3396 35.6112 39.0045 35.7395 39.6459C35.8678 40.2873 36.1846 40.8765 36.6497 41.3389C37.1148 41.8013 37.7074 42.1162 38.3525 42.2438C38.9977 42.3714 39.6664 42.3059 40.2741 42.0557C40.8818 41.8054 41.4012 41.3816 41.7666 40.8378C42.1321 40.2941 42.3271 39.6548 42.3271 39.0008C42.3243 38.1247 41.973 37.2853 41.3499 36.6658C40.7268 36.0463 39.8825 35.6971 39.0013 35.6943Z"
                      fill="black"
                    />
                    <defs>
                      <clipPath id="clip0_123_63">
                        <rect width="78.51" height="77.5761" fill="white" />
                      </clipPath>
                    </defs>
                  </svg>