<svg
                    width="78"
                    height="78"
                    viewBox="0 0 78 78"
                    fill="none"
                    xmlns="http://www.w3.org/2000/svg"
                  >
                    <g clip-path="url(#clip0_123_65)">
                      <path
                        d="M76.861 38.807C76.861 17.9001 59.9126 0.95166 39.0057 0.95166C18.0988 0.95166 1.15039 17.9001 1.15039 38.807C1.15039 59.7139 18.0988 76.6623 39.0057 76.6623C59.9126 76.6623 76.861 59.7139 76.861 38.807Z"
                        fill="#478BFF"
                      />
                      <path
                        d="M76.861 38.807C76.861 17.9001 59.9126 0.95166 39.0057 0.95166C18.0988 0.95166 1.15039 17.9001 1.15039 38.807C1.15039 59.7139 18.0988 76.6623 39.0057 76.6623C59.9126 76.6623 76.861 59.7139 76.861 38.807Z"
                        stroke="#141414"
                        stroke-width="0.934643"
                      />
                    </g>
                    <path
                      d="M30.4102 24.3203H47.0768C48.7344 24.3203 50.3241 24.9788 51.4962 26.1509C52.6683 27.323 53.3268 28.9127 53.3268 30.5703V47.237C53.3268 48.8946 52.6683 50.4843 51.4962 51.6564C50.3241 52.8285 48.7344 53.487 47.0768 53.487H30.4102C28.7526 53.487 27.1628 52.8285 25.9907 51.6564C24.8186 50.4843 24.1602 48.8946 24.1602 47.237V30.5703C24.1602 28.9127 24.8186 27.323 25.9907 26.1509C27.1628 24.9788 28.7526 24.3203 30.4102 24.3203ZM30.4102 28.487C29.8576 28.487 29.3277 28.7065 28.937 29.0972C28.5463 29.4879 28.3268 30.0178 28.3268 30.5703V47.237C28.3268 47.7895 28.5463 48.3194 28.937 48.7101C29.3277 49.1008 29.8576 49.3203 30.4102 49.3203H47.0768C47.6294 49.3203 48.1593 49.1008 48.55 48.7101C48.9407 48.3194 49.1602 47.7895 49.1602 47.237V30.5703C49.1602 30.0178 48.9407 29.4879 48.55 29.0972C48.1593 28.7065 47.6294 28.487 47.0768 28.487H30.4102ZM34.5768 32.6536H42.9102C43.4627 32.6536 43.9926 32.8731 44.3833 33.2638C44.774 33.6545 44.9935 34.1844 44.9935 34.737V43.0703C44.9935 43.6228 44.774 44.1527 44.3833 44.5434C43.9926 44.9342 43.4627 45.1536 42.9102 45.1536H34.5768C34.0243 45.1536 33.4944 44.9342 33.1037 44.5434C32.713 44.1527 32.4935 43.6228 32.4935 43.0703V34.737C32.4935 34.1844 32.713 33.6545 33.1037 33.2638C33.4944 32.8731 34.0243 32.6536 34.5768 32.6536ZM36.6602 36.8203V40.987H40.8268V36.8203H36.6602ZM30.4102 18.0703C30.9627 18.0703 31.4926 18.2898 31.8833 18.6805C32.274 19.0712 32.4935 19.6011 32.4935 20.1536V24.3203C32.4935 24.8728 32.274 25.4028 31.8833 25.7935C31.4926 26.1842 30.9627 26.4036 30.4102 26.4036C29.8576 26.4036 29.3277 26.1842 28.937 25.7935C28.5463 25.4028 28.3268 24.8728 28.3268 24.3203V20.1536C28.3268 19.6011 28.5463 19.0712 28.937 18.6805C29.3277 18.2898 29.8576 18.0703 30.4102 18.0703ZM19.9935 28.487H24.1602C24.7127 28.487 25.2426 28.7065 25.6333 29.0972C26.024 29.4879 26.2435 30.0178 26.2435 30.5703C26.2435 31.1228 26.024 31.6528 25.6333 32.0435C25.2426 32.4342 24.7127 32.6536 24.1602 32.6536H19.9935C19.441 32.6536 18.9111 32.4342 18.5204 32.0435C18.1296 31.6528 17.9102 31.1228 17.9102 30.5703C17.9102 30.0178 18.1296 29.4879 18.5204 29.0972C18.9111 28.7065 19.441 28.487 19.9935 28.487ZM53.3268 28.487H57.4935C58.046 28.487 58.5759 28.7065 58.9666 29.0972C59.3573 29.4879 59.5768 30.0178 59.5768 30.5703C59.5768 31.1228 59.3573 31.6528 58.9666 32.0435C58.5759 32.4342 58.046 32.6536 57.4935 32.6536H53.3268C52.7743 32.6536 52.2444 32.4342 51.8537 32.0435C51.463 31.6528 51.2435 31.1228 51.2435 30.5703C51.2435 30.0178 51.463 29.4879 51.8537 29.0972C52.2444 28.7065 52.7743 28.487 53.3268 28.487ZM19.9935 36.8203H24.1602C24.7127 36.8203 25.2426 37.0398 25.6333 37.4305C26.024 37.8212 26.2435 38.3511 26.2435 38.9036C26.2435 39.4562 26.024 39.9861 25.6333 40.3768C25.2426 40.7675 24.7127 40.987 24.1602 40.987H19.9935C19.441 40.987 18.9111 40.7675 18.5204 40.3768C18.1296 39.9861 17.9102 39.4562 17.9102 38.9036C17.9102 38.3511 18.1296 37.8212 18.5204 37.4305C18.9111 37.0398 19.441 36.8203 19.9935 36.8203ZM53.3268 36.8203H57.4935C58.046 36.8203 58.5759 37.0398 58.9666 37.4305C59.3573 37.8212 59.5768 38.3511 59.5768 38.9036C59.5768 39.4562 59.3573 39.9861 58.9666 40.3768C58.5759 40.7675 58.046 40.987 57.4935 40.987H53.3268C52.7743 40.987 52.2444 40.7675 51.8537 40.3768C51.463 39.9861 51.2435 39.4562 51.2435 38.9036C51.2435 38.3511 51.463 37.8212 51.8537 37.4305C52.2444 37.0398 52.7743 36.8203 53.3268 36.8203ZM19.9935 45.1536H24.1602C24.7127 45.1536 25.2426 45.3731 25.6333 45.7638C26.024 46.1545 26.2435 46.6844 26.2435 47.237C26.2435 47.7895 26.024 48.3194 25.6333 48.7101C25.2426 49.1008 24.7127 49.3203 24.1602 49.3203H19.9935C19.441 49.3203 18.9111 49.1008 18.5204 48.7101C18.1296 48.3194 17.9102 47.7895 17.9102 47.237C17.9102 46.6844 18.1296 46.1545 18.5204 45.7638C18.9111 45.3731 19.441 45.1536 19.9935 45.1536ZM53.3268 45.1536H57.4935C58.046 45.1536 58.5759 45.3731 58.9666 45.7638C59.3573 46.1545 59.5768 46.6844 59.5768 47.237C59.5768 47.7895 59.3573 48.3194 58.9666 48.7101C58.5759 49.1008 58.046 49.3203 57.4935 49.3203H53.3268C52.7743 49.3203 52.2444 49.1008 51.8537 48.7101C51.463 48.3194 51.2435 47.7895 51.2435 47.237C51.2435 46.6844 51.463 46.1545 51.8537 45.7638C52.2444 45.3731 52.7743 45.1536 53.3268 45.1536ZM30.4102 51.4036C30.9627 51.4036 31.4926 51.6231 31.8833 52.0138C32.274 52.4045 32.4935 52.9344 32.4935 53.487V57.6536C32.4935 58.2062 32.274 58.7361 31.8833 59.1268C31.4926 59.5175 30.9627 59.737 30.4102 59.737C29.8576 59.737 29.3277 59.5175 28.937 59.1268C28.5463 58.7361 28.3268 58.2062 28.3268 57.6536V53.487C28.3268 52.9344 28.5463 52.4045 28.937 52.0138C29.3277 51.6231 29.8576 51.4036 30.4102 51.4036ZM47.0768 18.0703C47.6294 18.0703 48.1593 18.2898 48.55 18.6805C48.9407 19.0712 49.1602 19.6011 49.1602 20.1536V24.3203C49.1602 24.8728 48.9407 25.4028 48.55 25.7935C48.1593 26.1842 47.6294 26.4036 47.0768 26.4036C46.5243 26.4036 45.9944 26.1842 45.6037 25.7935C45.213 25.4028 44.9935 24.8728 44.9935 24.3203V20.1536C44.9935 19.6011 45.213 19.0712 45.6037 18.6805C45.9944 18.2898 46.5243 18.0703 47.0768 18.0703ZM47.0768 51.4036C47.6294 51.4036 48.1593 51.6231 48.55 52.0138C48.9407 52.4045 49.1602 52.9344 49.1602 53.487V57.6536C49.1602 58.2062 48.9407 58.7361 48.55 59.1268C48.1593 59.5175 47.6294 59.737 47.0768 59.737C46.5243 59.737 45.9944 59.5175 45.6037 59.1268C45.213 58.7361 44.9935 58.2062 44.9935 57.6536V53.487C44.9935 52.9344 45.213 52.4045 45.6037 52.0138C45.9944 51.6231 46.5243 51.4036 47.0768 51.4036ZM38.7435 18.0703C39.296 18.0703 39.8259 18.2898 40.2166 18.6805C40.6073 19.0712 40.8268 19.6011 40.8268 20.1536V24.3203C40.8268 24.8728 40.6073 25.4028 40.2166 25.7935C39.8259 26.1842 39.296 26.4036 38.7435 26.4036C38.191 26.4036 37.6611 26.1842 37.2703 25.7935C36.8796 25.4028 36.6602 24.8728 36.6602 24.3203V20.1536C36.6602 19.6011 36.8796 19.0712 37.2703 18.6805C37.6611 18.2898 38.191 18.0703 38.7435 18.0703ZM38.7435 51.4036C39.296 51.4036 39.8259 51.6231 40.2166 52.0138C40.6073 52.4045 40.8268 52.9344 40.8268 53.487V57.6536C40.8268 58.2062 40.6073 58.7361 40.2166 59.1268C39.8259 59.5175 39.296 59.737 38.7435 59.737C38.191 59.737 37.6611 59.5175 37.2703 59.1268C36.8796 58.7361 36.6602 58.2062 36.6602 57.6536V53.487C36.6602 52.9344 36.8796 52.4045 37.2703 52.0138C37.6611 51.6231 38.191 51.4036 38.7435 51.4036Z"
                      fill="black"
                    />
                    <defs>
                      <clipPath id="clip0_123_65">
                        <rect width="77.58" height="77.58" fill="white" />
                      </clipPath>
                    </defs>
                  </svg>