<svg width="78" height="78" viewBox="0 0 78 78" fill="none" xmlns="http://www.w3.org/2000/svg">
<g clip-path="url(#clip0_123_65)">
<path d="M76.861 38.807C76.861 17.9001 59.9126 0.95166 39.0057 0.95166C18.0988 0.95166 1.15039 17.9001 1.15039 38.807C1.15039 59.7139 18.0988 76.6623 39.0057 76.6623C59.9126 76.6623 76.861 59.7139 76.861 38.807Z" fill="#478BFF"/>
<path d="M76.861 38.807C76.861 17.9001 59.9126 0.95166 39.0057 0.95166C18.0988 0.95166 1.15039 17.9001 1.15039 38.807C1.15039 59.7139 18.0988 76.6623 39.0057 76.6623C59.9126 76.6623 76.861 59.7139 76.861 38.807Z" stroke="#141414" stroke-width="0.934643"/>
</g>
<path d="M36.0931 65.1461C36.026 65.0395 35.8646 64.2547 35.7343 63.402C35.3179 60.6777 35.2128 60.1506 35.0725 60.0826C35.0002 60.0477 34.5864 59.9527 34.1529 59.8716C33.0695 59.6688 31.4741 59.1313 30.1723 58.5304C29.4261 58.1859 29.0494 58.0535 28.979 58.111C28.9224 58.1571 28.4673 58.7233 27.9677 59.3691C26.6535 61.0677 26.2377 61.5504 26.0887 61.5504C26.0161 61.5504 25.1078 60.94 24.0703 60.1939C23.0328 59.4479 21.8621 58.6127 21.4687 58.338C20.498 57.6602 20.4817 57.6421 20.6027 57.381C20.6573 57.2632 21.0723 56.5933 21.5249 55.8921C21.9776 55.191 22.4783 54.3839 22.6375 54.0986L22.9271 53.5798L22.1031 52.547C21.1614 51.3668 20.1865 49.9743 19.7092 49.1277C19.5292 48.8084 19.3464 48.5255 19.303 48.4992C19.2597 48.4728 18.583 48.6615 17.7994 48.9185C17.0158 49.1755 16.0894 49.4649 15.7408 49.5616C15.1469 49.7264 15.0959 49.7284 14.9342 49.5937C14.7374 49.4297 12.8054 43.8768 12.8466 43.5934C12.8779 43.378 13.196 43.2239 14.7295 42.6814C16.385 42.0957 16.5706 42.0093 16.6286 41.7967C16.7075 41.5073 16.687 35.5108 16.6066 35.3862C16.567 35.3249 15.7499 35.039 14.7907 34.751C13.106 34.2452 12.7402 34.0855 12.7402 33.8559C12.7402 33.7965 12.9738 32.9983 13.2593 32.0822C13.5448 31.166 13.9488 29.8584 14.157 29.1764C14.3843 28.4319 14.5939 27.9004 14.6816 27.8464C14.7918 27.7785 15.2868 27.8788 16.6959 28.2545C17.7234 28.5285 18.6315 28.7706 18.7137 28.7925C18.8248 28.8222 18.9297 28.7038 19.121 28.3325C19.4683 27.659 20.8254 25.6059 21.8995 24.1293C22.3819 23.4662 22.8058 22.8763 22.8415 22.8184C22.8772 22.7606 22.8457 22.598 22.7716 22.4571C22.6237 22.1757 21.4039 20.6385 20.8711 20.0619C20.686 19.8616 20.5346 19.6366 20.5346 19.5618C20.5346 19.4014 20.8751 19.08 21.7169 18.4456C22.0541 18.1915 22.862 17.5536 23.5123 17.0281C25.0697 15.7696 25.9704 15.0878 26.1736 15.0136C26.2996 14.9677 26.4322 15.0514 26.7291 15.3643C27.2827 15.9477 28.5671 17.3951 29.0148 17.9403C29.2234 18.1942 29.4509 18.402 29.5202 18.402C29.5895 18.402 29.9808 18.2465 30.3897 18.0563C31.6467 17.4718 33.9182 16.6344 34.6942 16.4693C34.8474 16.4368 35.011 16.3642 35.0577 16.308C35.1044 16.2518 35.2263 15.702 35.3286 15.0863C35.8419 11.9976 35.9325 11.5641 36.0889 11.4517C36.2094 11.365 36.9307 11.3398 39.2909 11.3398H42.3373L42.4604 11.5336C42.528 11.6402 42.7493 12.6188 42.9521 13.7083C43.479 16.5386 43.3713 16.2949 44.1706 16.4644C45.3353 16.7115 47.0482 17.3306 48.5547 18.0492C48.9616 18.2433 49.3407 18.402 49.3971 18.402C49.4536 18.402 50.08 17.6463 50.7893 16.7226C52.2172 14.8629 52.2214 14.86 52.8129 15.2984C53.1234 15.5286 55.3781 17.1464 57.3497 18.5538C57.7653 18.8505 58.1053 19.1502 58.1053 19.2199C58.1053 19.2896 57.5941 20.1034 56.9693 21.0284C55.7464 22.8389 55.7576 22.8077 56.136 23.3389C56.317 23.593 56.3044 23.9114 56.1129 23.9246C56.0286 23.9304 54.4146 23.9295 52.5262 23.9227L49.0928 23.9102L48.4101 23.5125C45.6258 21.8904 42.4221 21.144 38.7945 21.2725C33.8318 21.4482 30.27 22.9254 27.0963 26.1241C24.8687 28.3693 23.4148 30.904 22.6393 33.8944C22.0508 36.1636 22.0545 39.808 22.6476 42.1643C23.3704 45.0357 24.5477 47.3449 26.4501 49.6221C28.9265 52.5866 32.0056 54.4546 35.6855 55.225C38.6056 55.8364 41.6799 55.666 44.4712 54.7383C45.0406 54.5491 45.5757 54.4159 45.6604 54.4423C45.8031 54.4869 46.6591 55.943 47.7226 57.9506C48.1565 58.7695 48.1618 58.7887 47.9901 58.9132C47.793 59.0561 45.2057 59.7563 44.1426 59.9545C43.7605 60.0257 43.4202 60.128 43.3863 60.1819C43.3525 60.2357 43.1414 61.3879 42.9172 62.7423C42.6822 64.1618 42.4647 65.2328 42.4036 65.271C42.3453 65.3074 40.929 65.3378 39.2563 65.3385L36.215 65.3398L36.0931 65.1461ZM51.3836 57.6544C51.099 57.263 50.6095 56.5745 50.2958 56.1245C49.9821 55.6745 49.1183 54.459 48.3761 53.4233C47.634 52.3877 46.7312 51.1236 46.3699 50.6142C45.4437 49.3082 44.7732 48.3787 43.2125 46.2374C41.2032 43.4804 40.1669 42.0527 39.6265 41.2968C37.8787 38.852 37.0574 37.657 36.9721 37.4348C36.7962 36.9766 36.8676 36.9624 39.2134 36.9879C40.3798 37.0006 41.665 36.972 42.0692 36.9242C43.8754 36.7109 44.9742 35.669 44.979 34.1649C44.9819 33.2448 44.7814 32.7576 44.1394 32.1259C43.6848 31.6786 43.5085 31.5681 43.0058 31.4154C42.4462 31.2454 42.2147 31.2346 39.1463 31.2346C36.501 31.2346 35.8634 31.2568 35.7833 31.3517C35.7115 31.4368 35.6832 33.6547 35.6801 39.4497L35.6757 47.4306L35.2208 47.7189C34.9706 47.8775 34.293 48.2886 33.715 48.6324C33.137 48.9763 32.2972 49.485 31.8488 49.7629C31.0603 50.2515 30.6814 50.3717 30.5564 50.1727C30.5234 50.1202 30.4775 44.8474 30.4542 38.4553C30.4142 27.4425 30.4201 26.8244 30.5664 26.6655C30.7165 26.5024 30.8826 26.4978 36.5967 26.5006C42.5614 26.5036 43.8474 26.5512 44.8198 26.8054C46.1559 27.1546 47.6952 28.1373 48.6225 29.2331C49.4598 30.2225 50.1284 31.828 50.2639 33.1744C50.2986 33.5195 50.2816 34.0927 50.2243 34.5093C49.9033 36.8432 48.4283 38.8369 45.8901 40.3676C45.3865 40.6713 45.1439 40.8696 45.1439 40.9773C45.1439 41.151 45.8059 42.1054 47.5558 44.4547C47.8028 44.7863 48.3761 45.5614 48.83 46.1772C49.2838 46.793 49.7618 47.4324 49.8923 47.5982C50.0228 47.764 50.5904 48.5197 51.1536 49.2776C51.9968 50.4123 52.8733 51.5782 53.2247 52.0325C53.6844 52.627 55.7565 55.4132 56.2038 56.0384C57.4059 57.7186 57.5014 57.8736 57.4746 58.0999L57.4485 58.3207L54.6747 58.3434L51.901 58.3662L51.3836 57.6544ZM51.5589 41.3402C51.4987 41.3163 51.4494 41.2 51.4494 41.0818C51.4494 40.8844 53.2384 37.6474 53.7621 36.8973L53.9875 36.5743H57.4807C60.5616 36.5743 60.9875 36.5904 61.0891 36.7107C61.1876 36.8274 61.0564 37.1361 60.1831 38.8423C59.6215 39.9396 59.0824 40.9634 58.9852 41.1174L58.8085 41.3973L55.2384 41.3905C53.2749 41.3867 51.6191 41.3641 51.5589 41.3402ZM54.1954 31.7746C54.092 31.7565 53.9481 31.676 53.8756 31.5958C53.6759 31.3748 51.3619 27.0512 51.3619 26.899C51.3619 26.826 51.3991 26.7437 51.4445 26.716C51.49 26.6884 54.4547 26.6672 58.0326 26.6689C63.5571 26.6715 64.557 26.6906 64.6634 26.7953C64.7722 26.9023 64.7682 26.9734 64.6336 27.3326C64.4829 27.7348 62.5264 31.5581 62.4059 31.6859C62.3449 31.7506 54.54 31.8349 54.1954 31.7746Z" fill="black"/>
<defs>
<clipPath id="clip0_123_65">
<rect width="77.58" height="77.58" fill="white"/>
</clipPath>
</defs>
</svg>
