<svg
                    width="78"
                    height="78"
                    viewBox="0 0 78 78"
                    fill="none"
                    xmlns="http://www.w3.org/2000/svg"
                  >
                    <path
                      d="M69.2427 0.95166H8.70227C4.51314 0.95166 1.11719 4.34762 1.11719 8.53674V69.0772C1.11719 73.2663 4.51314 76.6623 8.70227 76.6623H69.2427C73.4318 76.6623 76.8278 73.2663 76.8278 69.0772V8.53674C76.8278 4.34762 73.4318 0.95166 69.2427 0.95166Z"
                      fill="#FFC412"
                    />
                    <path
                      d="M69.2427 0.95166H8.70227C4.51314 0.95166 1.11719 4.34762 1.11719 8.53674V69.0772C1.11719 73.2663 4.51314 76.6623 8.70227 76.6623H69.2427C73.4318 76.6623 76.8278 73.2663 76.8278 69.0772V8.53674C76.8278 4.34762 73.4318 0.95166 69.2427 0.95166Z"
                      stroke="#141414"
                      stroke-width="0.934643"
                    />
                    <path
                      d="M31.6721 44.5698C31.2225 44.5698 30.7831 44.7164 30.4094 44.9911C30.0356 45.2659 29.7443 45.6563 29.5723 46.1131C29.4003 46.5699 29.3553 47.0726 29.443 47.5576C29.5307 48.0425 29.7471 48.488 30.065 48.8376C30.3828 49.1872 30.7878 49.4253 31.2287 49.5218C31.6695 49.6183 32.1265 49.5687 32.5418 49.3795C32.9571 49.1903 33.312 48.8699 33.5618 48.4588C33.8115 48.0476 33.9448 47.5643 33.9448 47.0698C33.9448 46.4068 33.7053 45.7709 33.2791 45.3021C32.8529 44.8332 32.2748 44.5698 31.6721 44.5698ZM15.763 42.0698C15.1602 42.0698 14.5821 42.3332 14.1559 42.8021C13.7297 43.2709 13.4902 43.9068 13.4902 44.5698V49.5698C13.4902 50.2329 13.7297 50.8688 14.1559 51.3376C14.5821 51.8064 15.1602 52.0698 15.763 52.0698C16.3657 52.0698 16.9438 51.8064 17.37 51.3376C17.7962 50.8688 18.0357 50.2329 18.0357 49.5698V44.5698C18.0357 43.9068 17.7962 43.2709 17.37 42.8021C16.9438 42.3332 16.3657 42.0698 15.763 42.0698ZM61.2175 42.0698C60.6147 42.0698 60.0367 42.3332 59.6104 42.8021C59.1842 43.2709 58.9448 43.9068 58.9448 44.5698V49.5698C58.9448 50.2329 59.1842 50.8688 59.6104 51.3376C60.0367 51.8064 60.6147 52.0698 61.2175 52.0698C61.8203 52.0698 62.3983 51.8064 62.8246 51.3376C63.2508 50.8688 63.4902 50.2329 63.4902 49.5698V44.5698C63.4902 43.9068 63.2508 43.2709 62.8246 42.8021C62.3983 42.3332 61.8203 42.0698 61.2175 42.0698ZM49.8539 24.5698H40.763V21.3698C41.45 20.9335 42.0212 20.3071 42.4199 19.5527C42.8186 18.7984 43.0309 17.9424 43.0357 17.0698C43.0357 15.7437 42.5568 14.472 41.7044 13.5343C40.8519 12.5966 39.6958 12.0698 38.4902 12.0698C37.2847 12.0698 36.1286 12.5966 35.2761 13.5343C34.4237 14.472 33.9448 15.7437 33.9448 17.0698C33.9496 17.9424 34.1619 18.7984 34.5606 19.5527C34.9593 20.3071 35.5305 20.9335 36.2175 21.3698V24.5698H27.1266C25.3183 24.5698 23.5841 25.36 22.3054 26.7665C21.0268 28.173 20.3084 30.0807 20.3084 32.0698V54.5698C20.3084 56.5589 21.0268 58.4666 22.3054 59.8731C23.5841 61.2797 25.3183 62.0698 27.1266 62.0698H49.8539C51.6622 62.0698 53.3964 61.2797 54.6751 59.8731C55.9537 58.4666 56.6721 56.5589 56.6721 54.5698V32.0698C56.6721 30.0807 55.9537 28.173 54.6751 26.7665C53.3964 25.36 51.6622 24.5698 49.8539 24.5698ZM42.3993 29.5698L41.263 34.5698H35.7175L34.5811 29.5698H42.3993ZM52.1266 54.5698C52.1266 55.2329 51.8872 55.8688 51.4609 56.3376C51.0347 56.8064 50.4566 57.0698 49.8539 57.0698H27.1266C26.5238 57.0698 25.9458 56.8064 25.5195 56.3376C25.0933 55.8688 24.8539 55.2329 24.8539 54.5698V32.0698C24.8539 31.4068 25.0933 30.7709 25.5195 30.3021C25.9458 29.8332 26.5238 29.5698 27.1266 29.5698H29.8993L31.6721 37.6698C31.7965 38.2245 32.0899 38.7156 32.5034 39.0613C32.9169 39.407 33.4256 39.5865 33.9448 39.5698H43.0357C43.5549 39.5865 44.0635 39.407 44.4771 39.0613C44.8906 38.7156 45.184 38.2245 45.3084 37.6698L47.0811 29.5698H49.8539C50.4566 29.5698 51.0347 29.8332 51.4609 30.3021C51.8872 30.7709 52.1266 31.4068 52.1266 32.0698V54.5698ZM45.3084 44.5698C44.8589 44.5698 44.4195 44.7164 44.0458 44.9911C43.672 45.2659 43.3807 45.6563 43.2087 46.1131C43.0367 46.5699 42.9917 47.0726 43.0794 47.5576C43.1671 48.0425 43.3835 48.488 43.7014 48.8376C44.0192 49.1872 44.4242 49.4253 44.865 49.5218C45.3059 49.6183 45.7629 49.5687 46.1782 49.3795C46.5934 49.1903 46.9484 48.8699 47.1981 48.4588C47.4478 48.0476 47.5811 47.5643 47.5811 47.0698C47.5811 46.4068 47.3417 45.7709 46.9155 45.3021C46.4893 44.8332 45.9112 44.5698 45.3084 44.5698Z"
                      fill="black"
                    />
                  </svg>