<svg width="89" height="78" viewBox="0 0 89 78" fill="none" xmlns="http://www.w3.org/2000/svg">
<path d="M1.01953 8.53555C1.01953 4.34708 4.41523 0.95166 8.60403 0.95166L61.861 0.95167C64.5695 0.95167 67.0725 2.39594 68.4278 4.74085L85.92 35.0065C87.277 37.3543 87.277 40.248 85.92 42.5959L68.4278 72.8616C67.0725 75.2065 64.5695 76.6508 61.861 76.6508H8.60403C4.41523 76.6508 1.01953 73.2553 1.01953 69.0668V8.53555Z" fill="#FF6D38" stroke="#141414" stroke-width="0.934643"/>
<path d="M57.5533 14.3398C49.2356 14.3398 38.0746 19.8181 30.5797 29.2366H24.3665C19.8769 29.2366 17.3037 32.4536 15.532 35.8556L13.1602 40.4092H18.7596H24.3665L30.1855 45.9955L36.0046 51.5818V56.9643V62.3398L40.7479 60.0632C44.2917 58.362 47.6427 55.8918 47.6427 51.5818V45.6171C57.4536 38.422 63.1602 27.7075 63.1602 19.7224V14.3398H57.5533ZM47.6427 25.5124C49.7853 25.5124 51.5221 27.1797 51.5221 29.2366C51.5221 31.2935 49.7853 32.9608 47.6427 32.9608C45.5001 32.9608 43.7633 31.2935 43.7633 29.2366C43.7633 27.1797 45.5001 25.5124 47.6427 25.5124ZM22.4268 47.8576L20.4871 49.7197C17.6854 52.4093 16.6077 59.0302 16.6077 59.0302C16.6077 59.0302 23.1949 58.2928 26.3062 55.306L28.2459 53.4439L22.4268 47.8576Z" fill="black"/>
</svg>
