<svg  
                    width="76"
                    height="76"
                    viewBox="0 0 76 76"
                    fill="none"
                    xmlns="http://www.w3.org/2000/svg"
                  >
                    <path
                      d="M75.7106 37.8553C75.7106 16.9484 58.7622 0 37.8553 0C16.9484 0 0 16.9484 0 37.8553C0 58.7622 16.9484 75.7106 37.8553 75.7106C58.7622 75.7106 75.7106 58.7622 75.7106 37.8553Z"
                      fill="#7A78FF"
                    />
                    <path
                      d="M59.0939 51.2769L39.5661 31.7491C40.2186 29.5151 40.2189 27.1411 39.567 24.9069C38.915 22.6727 37.6381 20.6714 35.8866 19.1388C34.135 17.6062 31.9819 16.6062 29.681 16.2567C27.38 15.9071 25.0271 16.2225 22.8994 17.1658L30.3022 24.6241L24.0939 30.8325L16.6355 23.4297C15.6923 25.5573 15.3768 27.9103 15.7264 30.2112C16.0759 32.5122 17.0759 34.6653 18.6085 36.4168C20.1411 38.1684 22.1424 39.4453 24.3766 40.0972C26.6108 40.7491 28.9848 40.7488 31.2189 40.0963L50.7466 59.6241C51.0246 59.8973 51.3986 60.0503 51.7883 60.0503C52.178 60.0503 52.552 59.8973 52.83 59.6241L59.0939 53.3602C59.367 53.0823 59.52 52.7082 59.52 52.3186C59.52 51.9289 59.367 51.5548 59.0939 51.2769ZM52.5244 53.0547C52.2527 53.3131 51.9111 53.4861 51.542 53.5523C51.1729 53.6186 50.7925 53.5751 50.4479 53.4272C50.1033 53.2794 49.8096 53.0337 49.6033 52.7206C49.3969 52.4075 49.2869 52.0408 49.2869 51.6658C49.2869 51.2908 49.3969 50.9241 49.6033 50.611C49.8096 50.2979 50.1033 50.0522 50.4479 49.9044C50.7925 49.7565 51.1729 49.713 51.542 49.7792C51.9111 49.8455 52.2527 50.0185 52.5244 50.2769C52.7127 50.4559 52.8626 50.6714 52.965 50.9101C53.0674 51.1489 53.1202 51.406 53.1202 51.6658C53.1202 51.9256 53.0674 52.1827 52.965 52.4214C52.8626 52.6602 52.7127 52.8756 52.5244 53.0547Z"
                      fill="black"
                    />
                  </svg>